<svg xmlns="http://www.w3.org/2000/svg" viewBox="0 0 96 96" role="img" aria-label="Rumcajs"><rect width="96" height="96" rx="22" fill="#7c2d12"/><path d="M19 38c5-18 20-26 35-25 10 1 18 5 24 12-8-2-15-1-20 3 11 1 18 5 22 11-13-4-24-2-32 6-7-5-17-7-29-7z" fill="#f5d0a9"/><circle cx="38" cy="50" r="4" fill="#111827"/><circle cx="59" cy="50" r="4" fill="#111827"/><path d="M31 63c8-8 26-8 34 0-5 13-29 13-34 0z" fill="#3f1d0b"/><path d="M48 58c-8-9-18-7-22-1 7-2 13 1 22 8 9-7 15-10 22-8-4-6-14-8-22 1z" fill="#3f1d0b"/></svg>